<?xml version="1.0" encoding="UTF-8" standalone="no"?>
<!-- Created with Inkscape (http://www.inkscape.org/) -->

<svg
   xmlns:dc="http://purl.org/dc/elements/1.1/"
   xmlns:cc="http://creativecommons.org/ns#"
   xmlns:rdf="http://www.w3.org/1999/02/22-rdf-syntax-ns#"
   xmlns:svg="http://www.w3.org/2000/svg"
   xmlns="http://www.w3.org/2000/svg"
   xmlns:sodipodi="http://sodipodi.sourceforge.net/DTD/sodipodi-0.dtd"
   xmlns:inkscape="http://www.inkscape.org/namespaces/inkscape"
   width="51.84"
   height="51.84"
   id="svg29882"
   version="1.1"
   inkscape:version="0.48.4 r9939"
   sodipodi:docname="gear1.svg">
  <defs
     id="defs29884" />
  <sodipodi:namedview
     id="base"
     pagecolor="#ffffff"
     bordercolor="#666666"
     borderopacity="1.0"
     inkscape:pageopacity="0.0"
     inkscape:pageshadow="2"
     inkscape:zoom="7.9195959"
     inkscape:cx="34.862479"
     inkscape:cy="18.569395"
     inkscape:document-units="px"
     inkscape:current-layer="layer1"
     showgrid="false"
     inkscape:window-width="1304"
     inkscape:window-height="745"
     inkscape:window-x="-8"
     inkscape:window-y="-8"
     inkscape:window-maximized="1" />
  <metadata
     id="metadata29887">
    <rdf:RDF>
      <cc:Work
         rdf:about="">
        <dc:format>image/svg+xml</dc:format>
        <dc:type
           rdf:resource="http://purl.org/dc/dcmitype/StillImage" />
        <dc:title />
      </cc:Work>
    </rdf:RDF>
  </metadata>
  <g
     inkscape:label="Layer 1"
     inkscape:groupmode="layer"
     id="layer1"
     transform="translate(0,-1000.5222)">
    <g
       id="g28834"
       transform="matrix(0.99999325,0.00367305,-0.00367305,0.99999325,25.921,1026.1992)"
       inkscape:label="Gear6">
      <path
         id="path28836"
         d="m 12.248,-3.478 5.016,-1.425 1.184,-0.04 6.973,3.447 0,2.992 -6.973,3.447 -1.184,-0.04 -5.016,-1.425 -3.112,5.39 3.742,3.632 0.627,1.005 0.501,7.762 -2.591,1.496 -6.472,-4.315 -0.557,-1.045 -1.274,-5.057 -6.224,0 -1.274,5.057 -0.557,1.045 -6.472,4.315 -2.591,-1.496 0.501,-7.762 0.627,-1.005 3.742,-3.632 -3.112,-5.39 -5.016,1.425 -1.184,0.04 -6.973,-3.447 0,-2.992 6.973,-3.447 1.184,0.04 5.016,1.425 3.112,-5.39 -3.742,-3.632 -0.627,-1.005 -0.501,-7.762 2.591,-1.496 6.472,4.315 0.557,1.045 1.274,5.057 6.224,0 1.274,-5.057 0.557,-1.045 6.472,-4.315 2.591,1.496 -0.501,7.762 -0.627,1.005 -3.742,3.632 z"
         style="fill:none;stroke:#000000"
         inkscape:connector-curvature="0" />
    </g>
  </g>
</svg>
